<?xml version="1.0" encoding="UTF-8"?>
<!-- Svg Vector Icons : http://www.onlinewebfonts.com/icon -->
<svg enable-background="new 0 0 1000 1000" version="1.1" viewBox="0 0 1e3 1e3" xml:space="preserve" xmlns="http://www.w3.org/2000/svg">
<metadata> Svg Vector Icons : http://www.onlinewebfonts.com/icon </metadata>

<g transform="matrix(8.4276 0 0 8.4276 -413.88 -768.89)"><g transform="translate(5.2006)"><g transform="matrix(.35156 0 0 .35156 23.776 63.719)"><path d="m226.5 414.2c-91.9 0-166.7-74.8-166.7-166.7s74.8-166.7 166.7-166.7 166.7 74.8 166.7 166.7-74.8 166.7-166.7 166.7zm0-315.4c-82 0-148.7 66.7-148.7 148.7s66.7 148.7 148.7 148.7 148.7-66.7 148.7-148.7-66.7-148.7-148.7-148.7z"/><path d="m211.9 219.3 43.4 46.8c1.8 1.8 2.9 4.2 2.9 6.7l-3.9 92.8c-0.1 7.3 4.7 13.1 11.6 10.7 41-14.3 66.1-36.9 78.5-66.4 1.8-4.2 1.3-9-1.8-12.3l-37.8-40.3c-2.9-3-4.5-7-4.5-11.2l-0.3-22.4c0-5.8 4.7-10.4 10.5-10.4l30.3 0.4c14.3 0 15.5-5.3 13.4-11.1-14.1-39.2-39.6-66.9-78.4-81.5-4.4-1.7-9.2 1.4-9.4 6.1l-2.5 39.5c-0.2 4.3-3.7 7.6-7.9 7.6l-21.2-0.1c-5.6 0-10.4-2.7-12.7-5l-42.9-42.9c-2.6-2.5-6.4-3.3-9.7-1.8-34.4 15.7-58 41.1-71.8 77-2.1 5.6 2.4 11.5 8.4 11.5l92.3 0.6c5 0.2 9.9 2.2 13.5 5.7zm30.3-24.7c5.9-5.7 20-2.9 29.5 6.9 9.4 9.8 15.1 23.7 6.2 31.1-6.3 5.2-16.7 3.3-27-5.6-11.5-9.8-15.4-25.9-8.7-32.4z"/></g></g></g></svg>
